<svg xmlns="http://www.w3.org/2000/svg" xmlns:xlink="http://www.w3.org/1999/xlink" width="256" height="256" viewBox="0 0 256 256">
  <defs>
    <linearGradient id="终端管控图标-c" x1="50%" x2="50%" y1="0%" y2="99.002%">
      <stop offset="0%" stop-color="#FFF"/>
      <stop offset="100%" stop-color="#EFFCED"/>
    </linearGradient>
    <circle id="终端管控图标-b" cx="118" cy="118" r="118"/>
    <filter id="终端管控图标-a" width="111.9%" height="111.9%" x="-5.9%" y="-4.2%" filterUnits="objectBoundingBox">
      <feOffset dy="4" in="SourceAlpha" result="shadowOffsetOuter1"/>
      <feGaussianBlur in="shadowOffsetOuter1" result="shadowBlurOuter1" stdDeviation="4"/>
      <feColorMatrix in="shadowBlurOuter1" values="0 0 0 0 0   0 0 0 0 0   0 0 0 0 0  0 0 0 0.2 0"/>
    </filter>
    <linearGradient id="终端管控图标-f" x1="50%" x2="50%" y1="0%" y2="100%">
      <stop offset="0%" stop-color="#008596"/>
      <stop offset="100%" stop-color="#2056D2"/>
    </linearGradient>
    <path id="终端管控图标-e" d="M139.481851,150 L168.942646,150 C158.198725,167.402551 138.953727,179 117,179 C83.3106303,179 56,151.68937 56,118 C56,84.3106303 83.3106303,57 117,57 C138.953727,57 158.198725,68.5974491 168.942646,86 L140.861967,86 C141.59031,84.1180558 142.102804,82.5070255 142.388186,81.2248516 L139.172221,79.3102489 C137.625156,80.6353991 135.575433,82.8159383 133.281149,85.6777779 C131.679935,84.9740822 130.024699,84.2598856 128.273434,83.7512809 C128.469794,80.1452595 128.486117,77.1770162 128.205375,75.1601894 L124.531793,74.4461174 C123.57,76.2214199 122.42969,78.9151177 121.25041,82.3861434 C119.43614,82.2016782 117.644389,82.1897839 115.88566,82.2964372 C114.776478,78.773031 113.746875,75.9939315 112.808871,74.1857326 L109.163881,74.7667009 C108.883388,76.7865637 108.759018,79.7338049 108.832775,83.3923316 C107.119086,83.8441265 105.384395,84.403968 103.736747,85.0928581 C101.562155,82.1472596 99.5961911,79.8589233 98.1209902,78.5069485 L94.8602352,80.2838937 C95.2490238,82.3217226 96.1600788,85.1338433 97.5168569,88.5371839 C96.0222966,89.5922178 94.6252817,90.7222771 93.3258122,91.9273618 C90.2388966,89.9257147 87.6082051,88.4612642 85.7473762,87.6510401 L83.301524,90.4273532 C84.3040526,92.1920298 86.1514692,94.5133873 88.5841586,97.284897 C87.5773256,98.7150578 86.6575369,100.274267 85.8457948,101.854479 C82.2472385,101.042861 79.3194814,100.529827 77.2681155,100.411405 L75.9267666,103.850927 C77.4769929,105.105356 80.022158,106.721375 83.2696255,108.473908 C83.0370842,109.381803 82.815044,110.235674 82.6470271,111.100046 C82.4685091,112.018441 82.3545155,112.893315 82.2405218,113.768188 C78.573012,114.176585 75.6618279,114.731998 73.7005423,115.303858 L73.6557516,118.995406 C75.6021069,119.654061 78.5088619,120.275142 82.1494224,120.870666 C82.2560757,122.629396 82.578822,124.430129 82.9765937,126.133318 C79.6828176,127.791715 77.1438491,129.31651 75.509739,130.512612 L76.7374685,134.002997 C78.7663143,133.948849 81.7540418,133.576508 85.3660104,132.876993 C86.1089237,134.535141 86.9808857,136.106244 87.9818964,137.590304 C85.4384987,140.291591 83.5403442,142.557657 82.4269826,144.247433 L84.7846467,147.116488 C86.6588878,146.415579 89.2743996,145.073856 92.4481102,143.167862 C93.7177192,144.423809 95.0623535,145.582211 96.5360365,146.653569 C95.0431188,150.007565 94.0543767,152.786789 93.6118143,154.775148 L96.7737553,156.67925 C98.320821,155.3541 100.370544,153.173561 102.664828,150.311721 C104.266041,151.015417 105.921278,151.729613 107.672543,152.238218 C107.476183,155.844239 107.45986,158.812483 107.740602,160.82931 L111.414183,161.543382 C112.375976,159.768079 113.516287,157.074381 114.695566,153.603356 C116.509837,153.787821 118.301588,153.799715 120.060317,153.693062 C121.169499,157.216468 122.199102,159.995567 123.137106,161.803766 L126.836119,161.233299 C127.116612,159.213436 127.240982,156.266195 127.167225,152.607668 C128.880914,152.155873 130.615605,151.596032 132.263253,150.907142 C134.448346,153.798717 136.41431,156.087053 137.889511,157.439028 L141.150266,155.662083 C140.865076,154.167263 140.298867,152.255816 139.481851,150 Z"/>
    <filter id="终端管控图标-d" width="124.8%" height="123%" x="-12.4%" y="-8.2%" filterUnits="objectBoundingBox">
      <feOffset dy="4" in="SourceAlpha" result="shadowOffsetOuter1"/>
      <feGaussianBlur in="shadowOffsetOuter1" result="shadowBlurOuter1" stdDeviation="4"/>
      <feColorMatrix in="shadowBlurOuter1" values="0 0 0 0 0   0 0 0 0 0.380095109   0 0 0 0 0.342156201  0 0 0 0.5 0"/>
    </filter>
    <linearGradient id="终端管控图标-i" x1="50%" x2="50%" y1="0%" y2="100%">
      <stop offset="0%" stop-color="#6EB800"/>
      <stop offset="100%" stop-color="#247D00"/>
    </linearGradient>
    <path id="终端管控图标-h" d="M215.525169,86 C204.239063,86 196.230673,86 191.5,86 C190.960617,86 190.27701,86 189.449179,86 L189.449179,85.9999973 C187.935625,85.9999973 186.5517,85.1457022 185.873378,83.7926595 C185.336195,82.7211458 184.889322,81.8631059 184.53276,81.21854 C171.373424,57.4301406 146.135882,42 118,42 C76.026359,42 42,76.026359 42,118 C42,159.973641 76.026359,194 118,194 C154.484977,194 184.965223,168.290695 192.312825,134 L118.5,134 C109.663444,134 102.5,126.836556 102.5,118 C102.5,109.163444 109.663444,102 118.5,102 L210,102 C218.836556,102 226,109.163444 226,118 C226,177.646753 177.646753,226 118,226 C58.353247,226 10,177.646753 10,118 C10,58.353247 58.353247,10 118,10 C163.250914,10 203.224128,38.0891064 219.009035,79.7044452 C219.161458,80.1062921 219.298638,80.5685659 219.420576,81.0912666 L219.42057,81.091268 C219.922452,83.2426385 218.585278,85.3935247 216.433907,85.8954068 C216.135991,85.9649062 215.831085,86 215.525169,86 Z"/>
    <filter id="终端管控图标-g" width="113%" height="113%" x="-6.5%" y="-4.6%" filterUnits="objectBoundingBox">
      <feOffset dy="4" in="SourceAlpha" result="shadowOffsetOuter1"/>
      <feGaussianBlur in="shadowOffsetOuter1" result="shadowBlurOuter1" stdDeviation="4"/>
      <feColorMatrix in="shadowBlurOuter1" values="0 0 0 0 0.0151722205   0 0 0 0 0.463626585   0 0 0 0 0  0 0 0 0.5 0"/>
    </filter>
  </defs>
  <g fill="none" fill-rule="evenodd" transform="translate(10 10)">
    <use fill="#000" filter="url(#终端管控图标-a)" xlink:href="#终端管控图标-b"/>
    <use fill="url(#终端管控图标-c)" xlink:href="#终端管控图标-b"/>
    <circle cx="117" cy="118" r="5" fill="#FFF"/>
    <g fill-rule="nonzero">
      <use fill="#000" filter="url(#终端管控图标-d)" xlink:href="#终端管控图标-e"/>
      <use fill="url(#终端管控图标-f)" xlink:href="#终端管控图标-e"/>
    </g>
    <g fill-rule="nonzero">
      <use fill="#000" filter="url(#终端管控图标-g)" xlink:href="#终端管控图标-h"/>
      <use fill="url(#终端管控图标-i)" xlink:href="#终端管控图标-h"/>
    </g>
  </g>
</svg>
